<svg width="26" height="26" viewBox="0 0 26 26" fill="none" xmlns="http://www.w3.org/2000/svg">
<g clip-path="url(#clip0_7_89)">
<path d="M25.7859 11.3814L22.5359 5.69391C22.2467 5.18767 21.7083 4.87507 21.1252 4.87507H18.6877V3.25008C18.6877 2.35268 17.9601 1.62509 17.0627 1.62509H8.93776C8.04037 1.62509 7.31278 2.35268 7.31278 3.25008V4.87507H4.8753C4.29213 4.87507 3.75375 5.18767 3.46455 5.69391L0.214579 11.3814C-0.0730433 11.8844 -0.0710629 12.5021 0.219759 13.0032C0.510581 13.5043 1.04617 13.8125 1.62537 13.8125H4.06285V22.75C4.06285 23.6474 4.79044 24.375 5.68784 24.375H13.8128V16.25H18.6877V24.375H20.3127C21.2101 24.375 21.9377 23.6474 21.9377 22.75V13.8125H24.3752C24.9544 13.8125 25.49 13.5043 25.7808 13.0032C26.0715 12.5021 26.0735 11.8844 25.7859 11.3814ZM11.3752 20.3124H7.31278V16.25H11.3752V20.3124Z" fill="white"/>
</g>
<defs>
<clipPath id="clip0_7_89">
<rect width="26" height="26" fill="white"/>
</clipPath>
</defs>
</svg>
