<svg width="22" height="22" viewBox="0 0 22 22" fill="none" xmlns="http://www.w3.org/2000/svg">
<g clip-path="url(#clip0_7_81)">
<path d="M14.6666 11C16.8425 12.0841 18.3333 14.3464 18.3333 17.4167V21.0833H3.66663V17.4167C3.66663 14.3419 5.16179 12.0775 7.33329 11M16.5 6.41666C15.125 6.41666 13.75 6.74666 11.9166 4.58332C10.0833 6.74666 7.79163 7.33332 5.49996 6.41666M6.41663 11.9167L11.0228 16.7358L15.5833 11.9167M11 16.5V21.0833M11 11.9167C14.0375 11.9167 16.5 9.45422 16.5 6.41666C16.5 3.37909 14.0375 0.916656 11 0.916656C7.96239 0.916656 5.49996 3.37909 5.49996 6.41666C5.49996 9.45422 7.96239 11.9167 11 11.9167Z" stroke="white" stroke-width="2"/>
</g>
<defs>
<clipPath id="clip0_7_81">
<rect width="22" height="22" fill="white"/>
</clipPath>
</defs>
</svg>
