<svg width="183" height="81" viewBox="0 0 183 81" fill="none" xmlns="http://www.w3.org/2000/svg">
<path fill-rule="evenodd" clip-rule="evenodd" d="M90.9931 0.540924C88.8729 1.70788 87.8862 4.72722 89.6248 4.72722C90.0815 4.72722 90.4668 4.34132 90.7881 3.56198C91.4203 2.029 93.0118 1.58929 94.3317 2.58283C96.0788 3.89818 95.4656 6.36609 93.2036 7.12213C92.3705 7.40076 91.9561 7.77432 91.8388 8.35248C91.7457 8.80898 91.5942 9.55405 91.5019 10.0085C91.3723 10.6446 90.5199 11.2745 87.7928 12.7502C84.6389 14.4566 84.0327 14.666 82.2488 14.666C80.161 14.666 77.227 15.5197 72.8962 17.3872C70.5463 18.4003 70.5288 18.4181 70.5552 19.7071C70.5809 20.9508 72.4951 28.1252 73.039 29.017C73.3008 29.4461 73.4337 29.409 78.4765 27.5131C79.1273 27.2684 79.7741 27.1399 79.9141 27.2277C80.0541 27.3154 80.1688 32.3129 80.1688 38.3337L80.1688 49.2805H92.4977H104.827L104.853 38.2477C104.867 32.1799 104.927 27.1656 104.987 27.1053C105.047 27.0446 106.59 27.5429 108.416 28.2126C110.241 28.8823 111.843 29.3083 111.975 29.1595C112.346 28.7401 114.671 20.0765 114.671 19.1121C114.671 18.3197 114.297 18.1182 109.682 16.4269C105.333 14.8326 104.474 14.6235 102.991 14.7976C101.519 14.97 101.038 14.8566 99.4391 13.96C98.4216 13.3897 96.638 12.4524 95.4751 11.8773C93.7611 11.0295 93.3609 10.6768 93.3609 10.014C93.3609 9.40565 93.7059 9.01804 94.7089 8.4995C96.5044 7.57177 97.2509 6.34416 97.2509 4.31973C97.2509 2.89745 97.0913 2.52046 96.0366 1.45186C94.5086 -0.0961914 92.7328 -0.416971 90.9931 0.540924ZM79.6614 4.67307C78.1744 5.59395 77.7124 6.30097 77.6698 7.72085C77.6207 9.36486 78.6274 9.72884 79.1767 8.26578C79.7419 6.75885 80.5118 6.09809 81.7021 6.09809C83.0325 6.09809 83.6867 6.82636 83.6867 8.30793C83.6867 9.16781 83.3978 9.68257 82.4352 10.5394C81.4441 11.4208 81.1836 11.8996 81.1836 12.8404C81.1836 13.8761 81.281 14.0142 81.9447 13.9189C82.428 13.8493 82.7443 13.5337 82.8116 13.0542C82.8701 12.6392 83.223 12.2012 83.5961 12.0813C85.4125 11.4973 86.2094 7.68521 84.8747 5.96614C83.4161 4.0877 81.4099 3.58974 79.6614 4.67307ZM102.13 5.38626C101.036 6.49427 100.767 8.15439 101.682 8.15439C101.979 8.15439 102.649 7.69172 103.17 7.12624C104.806 5.35268 107.027 6.00178 107.027 8.25344C107.027 9.77819 106.458 10.476 104.989 10.7553C103.232 11.0894 102.065 13.266 103.37 13.7736C104.015 14.0245 104.523 13.7578 104.523 13.1694C104.523 12.9339 105.167 12.596 105.954 12.4185C108.883 11.757 109.942 7.98612 107.871 5.59601C106.91 4.48629 106.666 4.3845 104.97 4.3845C103.374 4.3845 102.982 4.52296 102.13 5.38626ZM95.6753 14.1245C96.5453 14.5714 97.6365 15.2613 98.0999 15.6579C98.9348 16.3728 98.9361 16.3841 98.2657 16.9129C97.8936 17.2062 96.4807 18.0682 95.126 18.828L92.6631 20.2095L89.2426 18.2474L85.8225 16.2854L86.6319 15.663C87.0771 15.3206 88.3547 14.5594 89.4709 13.9713C91.8087 12.7396 93.0369 12.7698 95.6753 14.1245ZM66.8076 21.8864C65.5053 22.6397 63.9368 23.515 63.3218 23.8317C62.3933 24.3094 62.2384 24.5476 62.4088 25.2351C62.6771 26.3184 65.8848 33.5744 66.2664 33.961C66.4335 34.1303 67.8558 33.5785 69.5593 32.6823L72.558 31.1055L72.8039 32.2982C72.9392 32.9541 73.3661 35.6941 73.7524 38.3869C74.668 44.7648 75.7782 51.4578 75.9494 51.6312C76.1341 51.8183 84.9285 50.6849 86.1354 50.3186C86.817 50.1116 85.9777 50.016 83.2977 49.9954L79.4923 49.9659L79.4923 38.7909C79.4923 28.2853 79.4568 27.6303 78.9003 27.8552C76.0329 29.0142 72.9419 30.0777 72.8151 29.9488C72.7295 29.8621 72.0218 27.7482 71.2421 25.2515C70.4628 22.7545 69.6791 20.6677 69.5001 20.6142C69.3215 20.5604 68.1099 21.1331 66.8076 21.8864ZM115.01 20.6279C115.01 21.1509 112.508 29.6075 112.274 29.8765C112.128 30.0451 110.635 29.6212 108.903 28.9183C107.193 28.2253 105.699 27.7551 105.582 27.8733C105.465 27.9919 105.315 33.0113 105.249 39.0274L105.13 49.9659L101.867 50.0005L98.604 50.0351L101.817 50.6565C107.085 51.6754 108.797 51.8142 109.015 51.2401C109.118 50.9677 109.928 46.4054 110.815 41.1019C111.77 35.3939 112.578 31.4592 112.796 31.4592C112.998 31.4592 114.333 32.1532 115.764 33.0014C117.194 33.8496 118.457 34.5436 118.57 34.5436C118.683 34.5436 119.775 32.439 120.996 29.8662L123.216 25.1892L122.411 24.5493C119.866 22.5266 115.01 19.9538 115.01 20.6279ZM180.97 55.0662L179.786 55.278L179.698 68.011L179.609 80.7437L181.305 80.8629L183 80.9819V67.8729C183 57.5904 182.908 54.7736 182.577 54.8092C182.344 54.8339 181.621 54.9497 180.97 55.0662ZM172.936 55.971C172.1 56.5708 171.905 58.1229 172.581 58.808C173.598 59.8386 176.254 58.8694 176.224 57.4786C176.191 56.0008 174.181 55.0789 172.936 55.971ZM0.000676147 68.7297L0 80.9819L5.83565 80.8105C11.5035 80.6439 11.7346 80.6086 13.87 79.574C16.5081 78.2956 18.6428 76.1824 19.8876 73.6179C20.6785 71.9879 20.8043 71.3049 20.8043 68.644C20.8043 65.9828 20.6785 65.3008 19.888 63.6746C18.8833 61.6084 17.0618 59.537 15.223 58.3697C12.7618 56.8076 11.0408 56.4776 5.35329 56.4776H0.00135229L0.000676147 68.7297ZM97.4197 68.7102V80.9819L99.111 80.8629L100.803 80.7444V77.0074V73.2707H103.65C105.216 73.2707 106.74 73.365 107.036 73.4801C107.332 73.5953 108.261 75.0217 109.099 76.6502C111.118 80.5689 111.846 81.0679 115.263 80.8732C116.331 80.8122 116.363 80.767 116.363 79.2683V77.726H114.826H113.289L112.289 75.5841C111.156 73.1566 111.065 72.5853 111.812 72.5853C112.1 72.5853 113.08 71.8306 113.991 70.9084C117.934 66.9126 117.314 60.8863 112.629 57.6812L111.12 56.6489L104.27 56.5437L97.42 56.4385L97.4197 68.7102ZM141.933 58.2768C141.851 58.7011 141.658 59.7419 141.504 60.5902C141.237 62.0659 141.17 62.1368 139.956 62.2386C138.723 62.3421 138.688 62.3826 138.688 63.6952C138.688 64.8947 138.779 65.0455 139.506 65.0455C141.405 65.0455 141.394 65.0098 141.394 71.0729C141.394 77.2826 141.757 78.9307 143.377 80.0819C144.503 80.8818 146.296 81.2012 147.809 80.8715C148.906 80.6323 148.981 80.5295 148.982 79.2566L148.984 77.8974L147.394 77.7932C144.918 77.6308 144.776 77.2428 144.776 70.5999V64.9972L146.862 65.0832L148.948 65.1696L148.949 63.8223L148.95 62.4751L146.863 62.373L144.776 62.2712V59.8883V57.5057H143.43C142.303 57.5057 142.059 57.6318 141.933 58.2768ZM12.1787 60.196C15.6431 62.0094 17.5875 65.0503 17.58 68.644C17.5729 72.1552 15.5379 75.3846 12.2903 77.0382C10.8639 77.7644 10.1843 77.8717 6.93567 77.8837L3.21482 77.8974L3.12146 69.3295C3.07004 64.6171 3.11537 60.3976 3.22158 59.953C3.4127 59.1559 3.4658 59.1463 7.03579 59.2717C10.0023 59.3763 10.9315 59.5432 12.1787 60.196ZM111.449 60.9233C113.591 63.0279 113.851 66.0006 112.081 68.132C110.584 69.9347 109.722 70.1863 105.048 70.1863H100.803V64.8481V59.5103L105.52 59.6216L110.238 59.7334L111.449 60.9233ZM31.9141 62.3178C28.8988 62.9224 25.9597 65.295 24.7745 68.082C23.9521 70.0159 24.0563 73.5027 24.992 75.3438C28.1222 81.5052 35.6833 82.8802 40.4183 78.1486C45.8128 72.7587 42.918 63.7504 35.3352 62.3301C34.2515 62.1273 33.3547 61.9778 33.3422 61.9987C33.33 62.0193 32.6874 62.1629 31.9141 62.3178ZM54.3343 62.4737C53.4274 62.7301 51.9438 63.407 51.0379 63.9776L49.3903 65.015L49.1765 63.6595C48.9698 62.351 48.9167 62.3038 47.6526 62.3038H46.3429V71.5225L46.3429 80.7416L47.865 80.8643L49.3872 80.9867L49.4248 75.5008C49.4454 72.4835 49.4386 69.701 49.4099 69.3175C49.2966 67.7996 53.2461 65.3882 55.8456 65.3882C57.8674 65.3882 59.098 66.3554 59.5522 68.3013C59.7285 69.0553 59.8651 71.7542 59.856 74.2989C59.8469 76.8435 59.8472 79.3341 59.8563 79.8334C59.8719 80.6618 60.0086 80.7522 61.4184 80.866L62.9633 80.9904L62.8557 73.6179C62.7542 66.6799 62.7035 66.173 61.9921 65.0256C60.5386 62.6811 57.3536 61.6197 54.3343 62.4737ZM73.52 62.3188C70.5301 62.9162 68.3947 64.5753 66.9226 67.4445C66.2985 68.6605 66.1311 69.5303 66.1311 71.5571C66.1311 73.584 66.2985 74.4538 66.9226 75.6697C69.012 79.7416 72.8979 81.6478 77.3697 80.7951C79.3303 80.4212 82.5366 78.7792 82.5366 78.149C82.5366 77.9964 82.0962 77.3374 81.5584 76.6849C80.6241 75.5522 80.5507 75.5251 79.9391 76.0851C78.1721 77.7031 74.8105 78.1897 72.7511 77.1256C71.4583 76.4576 69.79 74.4935 69.6229 73.4421C69.5167 72.7762 69.7203 72.7549 76.7862 72.6922C85.077 72.6185 84.6156 72.8242 83.888 69.5306C83.1885 66.3632 81.5154 64.2261 78.8117 63.045C76.8468 62.1869 75.2661 61.9699 73.52 62.3188ZM125.257 62.4569C123.619 62.8542 121.521 64.1373 120.488 65.3742C120.245 65.6648 119.676 66.6734 119.223 67.6159C117.025 72.187 119.083 77.8919 123.755 80.184C126.633 81.5953 131.762 80.9335 134.024 78.8594C134.815 78.1346 134.785 77.7572 133.844 76.5653L133.062 75.5762L131.616 76.5457C128.466 78.6579 124.201 77.7833 122.496 74.6755C121.983 73.743 121.811 73.0966 122.019 72.8865C122.211 72.6912 125.179 72.598 129.332 72.6572L136.321 72.7566L136.32 71.0122C136.32 68.8383 134.726 65.417 133.144 64.1945C130.817 62.3963 128.034 61.7832 125.257 62.4569ZM158.307 62.3168C157.47 62.4871 156.061 62.9655 155.178 63.3802C153.586 64.1277 153.571 64.1493 153.571 65.7895V67.4445H154.888C155.991 67.4445 156.237 67.3129 156.405 66.6316C156.643 65.6727 157.676 65.3882 160.92 65.3882C162.959 65.3882 163.189 65.4681 164.26 66.5534C165.154 67.4596 165.41 68.0014 165.41 68.9891C165.41 70.0639 165.319 70.2219 164.818 70.0145C163.126 69.3137 161.601 69.0495 159.152 69.0333C154.471 69.0022 152.105 70.9999 152.105 74.9843C152.105 78.7868 154.501 80.9572 158.645 80.9078C160.868 80.8814 162.746 80.2824 164.447 79.0578C164.941 78.7024 165.423 78.4115 165.517 78.4115C165.612 78.4115 165.785 78.99 165.903 79.6967C166.109 80.9284 166.173 80.9819 167.455 80.9819H168.793V74.607C168.793 67.8517 168.603 66.6929 167.176 64.7477C165.675 62.7017 161.733 61.6211 158.307 62.3168ZM172.514 71.6452V80.9867L174.017 80.8657C175.867 80.7166 175.756 81.425 175.631 70.6146L175.535 62.3038H174.024H172.514V71.6452ZM36.4718 66.2782C41.4442 68.7886 40.8874 75.484 35.5527 77.3285C33.7343 77.957 32.4367 77.796 30.5665 76.7092C26.05 74.0847 26.4411 68.3219 31.2903 66.0401C33.1359 65.1716 34.3945 65.2292 36.4718 66.2782ZM76.8376 65.7395C78.0114 66.0699 80.5071 68.3956 80.5071 69.1591C80.5071 69.372 78.467 69.5008 75.0949 69.5008C72.1182 69.5008 69.6828 69.4134 69.6828 69.3068C69.6828 68.2962 71.5117 66.488 73.1943 65.8358C74.5202 65.3217 75.2813 65.3018 76.8376 65.7395ZM129.751 66.038C130.509 66.3872 131.46 67.0987 131.865 67.619C133.273 69.4336 133.106 69.5008 127.168 69.5008H121.736L122.347 68.4497C123.182 67.0147 123.872 66.4328 125.389 65.8848C127.137 65.2532 128.119 65.2874 129.751 66.038ZM163.888 72.6915C164.93 73.0551 165.265 73.3639 165.344 74.0336C165.563 75.8791 161.058 78.3491 158.186 77.9587C155.075 77.5358 154.068 73.6086 156.751 72.3659C157.994 71.7902 161.804 71.9639 163.888 72.6915Z" fill="black"/>
</svg>
