<svg width="25" height="26" viewBox="0 0 25 26" fill="none" xmlns="http://www.w3.org/2000/svg">
<g clip-path="url(#clip0_7_87)">
<path d="M22.2525 15.9874C22.2525 15.9874 24.2737 18.0635 24.7737 19.0242C24.7835 19.0381 24.7911 19.0534 24.7962 19.0697C25 19.4246 25.05 19.7028 24.95 19.9082C24.7812 20.2475 24.21 20.4178 24.0162 20.4321H20.4437C20.195 20.4321 19.6775 20.3645 19.0475 19.9121C18.5662 19.5624 18.0875 18.9865 17.6237 18.4236C16.9312 17.5877 16.3325 16.8623 15.7262 16.8623C15.6497 16.8621 15.5736 16.8753 15.5012 16.9013C15.0425 17.0521 14.46 17.732 14.46 19.5429C14.46 20.1097 14.03 20.4321 13.7287 20.4321H12.0925C11.535 20.4321 8.63249 20.2293 6.05874 17.407C2.90499 13.9516 0.0724905 7.02 0.0449905 6.9589C-0.13126 6.5104 0.23874 6.266 0.63874 6.266H4.24624C4.72999 6.266 4.88749 6.5702 4.99749 6.8432C5.12499 7.1565 5.59749 8.4097 6.37249 9.8176C7.62749 12.1082 8.39874 13.0403 9.01499 13.0403C9.13077 13.0407 9.24459 13.0093 9.34499 12.9493C10.15 12.4891 9.99999 9.4991 9.96249 8.8829C9.96249 8.7633 9.96124 7.5478 9.54874 6.9602C9.25374 6.539 8.75124 6.3752 8.44749 6.3154C8.52874 6.1932 8.70124 6.006 8.92249 5.8955C9.47374 5.6095 10.47 5.5679 11.4587 5.5679H12.0075C13.08 5.5835 13.3575 5.655 13.7475 5.7577C14.5325 5.9527 14.5475 6.4818 14.4787 8.2836C14.4587 8.7984 14.4375 9.3782 14.4375 10.0607C14.4375 10.2063 14.4312 10.3688 14.4312 10.5339C14.4075 11.4582 14.3762 12.4995 15.0037 12.9272C15.0851 12.9799 15.1791 13.0079 15.275 13.0078C15.4925 13.0078 16.1437 13.0078 17.91 9.8553C18.685 8.463 19.285 6.8211 19.3262 6.6976C19.3612 6.6287 19.4662 6.435 19.5937 6.357C19.6844 6.30682 19.786 6.28175 19.8887 6.2842H24.1325C24.595 6.2842 24.9087 6.357 24.97 6.539C25.0725 6.8341 24.95 7.735 23.0125 10.4598C22.6862 10.9135 22.4 11.3061 22.1487 11.6493C20.3925 14.0465 20.3925 14.1674 22.2525 15.9874Z" fill="white"/>
</g>
<defs>
<clipPath id="clip0_7_87">
<rect width="25" height="26" fill="white"/>
</clipPath>
</defs>
</svg>
